<svg width="481" height="344" viewBox="0 0 481 344" fill="none" xmlns="http://www.w3.org/2000/svg">
<g clip-path="url(#clip0_34_2)">
<rect width="481" height="344" fill="#D4B4F4"/>
<g filter="url(#filter0_d_34_2)">
<path d="M431.341 -64.9703C433.99 -74.8511 448.01 -74.8511 450.659 -64.9703L485.104 63.5159C486.769 69.7284 493.782 72.7759 499.46 69.7546L630.501 0.0309547C639.937 -4.9896 649.61 6.30329 643.2 14.8562L564.948 119.271C560.512 125.189 563.814 133.709 571.08 135.091L713.386 162.176C724.226 164.24 724.226 179.76 713.386 181.824L571.08 208.909C563.814 210.291 560.512 218.811 564.948 224.729L643.2 329.144C649.61 337.697 639.937 348.99 630.501 343.969L499.46 274.245C493.782 271.224 486.769 274.272 485.104 280.484L450.659 408.97C448.01 418.851 433.99 418.851 431.341 408.97L396.896 280.484C395.231 274.272 388.218 271.224 382.54 274.245L251.499 343.969C242.063 348.99 232.39 337.697 238.8 329.144L317.052 224.729C321.488 218.811 318.186 210.291 310.92 208.909L168.614 181.824C157.774 179.76 157.774 164.24 168.614 162.176L310.92 135.091C318.186 133.709 321.488 125.189 317.052 119.271L238.8 14.8562C232.39 6.30331 242.063 -4.98961 251.499 0.0309403L382.54 69.7546C388.218 72.7759 395.231 69.7284 396.896 63.5159L431.341 -64.9703Z" fill="#FCFF6A"/>
<path d="M450.176 -64.8409L484.621 63.6454C486.37 70.1685 493.733 73.3683 499.695 70.196L630.736 0.472359C639.7 -4.29716 648.89 6.43108 642.8 14.5564L564.548 118.971C559.89 125.185 563.357 134.131 570.987 135.583L713.292 162.668C723.591 164.628 723.591 179.372 713.292 181.332L570.987 208.417C563.357 209.869 559.89 218.815 564.548 225.029L642.8 329.444C648.89 337.569 639.7 348.297 630.736 343.528L499.695 273.804C493.733 270.632 486.37 273.831 484.621 280.355L450.176 408.841C447.66 418.228 434.34 418.228 431.824 408.841L397.379 280.355C395.63 273.831 388.267 270.632 382.305 273.804L251.264 343.528C242.3 348.297 233.11 337.569 239.2 329.444L317.452 225.029C322.11 218.815 318.643 209.869 311.013 208.417L168.708 181.332C158.409 179.372 158.409 164.628 168.708 162.668L311.013 135.583C318.643 134.131 322.11 125.185 317.452 118.971L239.2 14.5564C233.11 6.4311 242.3 -4.29717 251.264 0.472343L382.305 70.196C388.267 73.3683 395.63 70.1685 397.379 63.6454L431.824 -64.8409C434.34 -74.2276 447.66 -74.2276 450.176 -64.8409Z" stroke="black"/>
</g>
</g>
<defs>
<filter id="filter0_d_34_2" x="156.484" y="-72.3809" width="569.032" height="496.762" filterUnits="userSpaceOnUse" color-interpolation-filters="sRGB">
<feFlood flood-opacity="0" result="BackgroundImageFix"/>
<feColorMatrix in="SourceAlpha" type="matrix" values="0 0 0 0 0 0 0 0 0 0 0 0 0 0 0 0 0 0 127 0" result="hardAlpha"/>
<feOffset dy="4"/>
<feGaussianBlur stdDeviation="2"/>
<feComposite in2="hardAlpha" operator="out"/>
<feColorMatrix type="matrix" values="0 0 0 0 0 0 0 0 0 0 0 0 0 0 0 0 0 0 0.25 0"/>
<feBlend mode="normal" in2="BackgroundImageFix" result="effect1_dropShadow_34_2"/>
<feBlend mode="normal" in="SourceGraphic" in2="effect1_dropShadow_34_2" result="shape"/>
</filter>
<clipPath id="clip0_34_2">
<rect width="481" height="344" fill="white"/>
</clipPath>
</defs>
</svg>
