<svg width="481" height="344" viewBox="0 0 481 344" fill="none" xmlns="http://www.w3.org/2000/svg">
<g clip-path="url(#clip0_21_10)">
<rect width="481" height="344" fill="#D4B4F4"/>
<g filter="url(#filter0_d_21_10)">
<path d="M29.4834 22.5171C30.8941 16.7588 39.1059 16.7588 40.5166 22.5171C41.4095 26.1613 45.5597 27.9385 48.8022 26.0507L50.1111 25.2886C54.9733 22.4577 60.2774 28.2164 57.0982 32.8583C54.9831 35.9464 56.6844 40.2022 60.3488 40.9654C65.9153 42.1247 65.9153 50.0739 60.3488 51.2332C56.6844 51.9964 54.9831 56.2522 57.0982 59.3403C60.2774 63.9821 54.9733 69.7408 50.1111 66.91L48.8022 66.1479C45.5597 64.2601 41.4095 66.0373 40.5166 69.6815C39.1059 75.4398 30.8941 75.4398 29.4834 69.6815C28.5905 66.0373 24.4403 64.2601 21.1978 66.1479L19.8889 66.91C15.0267 69.7408 9.72257 63.9821 12.9018 59.3403C15.0169 56.2522 13.3155 51.9964 9.6512 51.2332C4.08471 50.0739 4.08471 42.1247 9.6512 40.9654C13.3155 40.2022 15.0169 35.9464 12.9018 32.8583C9.72257 28.2164 15.0267 22.4577 19.8889 25.2886L21.1978 26.0507C24.4403 27.9385 28.5905 26.1613 29.4834 22.5171Z" fill="#FCFF6A"/>
<path d="M29.969 22.6361C31.2553 17.3858 38.7447 17.3858 40.031 22.6361C41.0028 26.6026 45.5207 28.5397 49.0537 26.4828L50.3627 25.7207C54.7541 23.164 59.5702 28.3643 56.6857 32.5758C54.3699 35.9568 56.2314 40.6186 60.2468 41.4549C65.2826 42.5036 65.2826 49.695 60.2468 50.7437C56.2314 51.58 54.3699 56.2418 56.6857 59.6228C59.5702 63.8343 54.7541 69.0346 50.3627 66.4779L49.0537 65.7158C45.5207 63.6589 41.0028 65.596 40.031 69.5625C38.7447 74.8128 31.2553 74.8128 29.969 69.5625C28.9972 65.596 24.4793 63.6589 20.9463 65.7158L19.6373 66.4779C15.2459 69.0346 10.4298 63.8343 13.3143 59.6228C15.6301 56.2418 13.7686 51.58 9.75315 50.7437C4.71739 49.695 4.71739 42.5036 9.75315 41.4549C13.7686 40.6186 15.6301 35.9568 13.3143 32.5758C10.4298 28.3643 15.2459 23.164 19.6373 25.7207L20.9463 26.4828C24.4793 28.5397 28.9972 26.6026 29.969 22.6361Z" stroke="black"/>
</g>
<g filter="url(#filter1_d_21_10)">
<path d="M97.4834 94.5171C98.8941 88.7588 107.106 88.7588 108.517 94.5171C109.409 98.1613 113.56 99.9385 116.802 98.0507L118.111 97.2886C122.973 94.4577 128.277 100.216 125.098 104.858C122.983 107.946 124.684 112.202 128.349 112.965C133.915 114.125 133.915 122.074 128.349 123.233C124.684 123.996 122.983 128.252 125.098 131.34C128.277 135.982 122.973 141.741 118.111 138.91L116.802 138.148C113.56 136.26 109.409 138.037 108.517 141.681C107.106 147.44 98.8941 147.44 97.4834 141.681C96.5905 138.037 92.4403 136.26 89.1978 138.148L87.8889 138.91C83.0267 141.741 77.7226 135.982 80.9018 131.34C83.0169 128.252 81.3155 123.996 77.6512 123.233C72.0847 122.074 72.0847 114.125 77.6512 112.965C81.3155 112.202 83.0169 107.946 80.9018 104.858C77.7226 100.216 83.0267 94.4577 87.8889 97.2886L89.1978 98.0507C92.4403 99.9385 96.5905 98.1613 97.4834 94.5171Z" fill="#FCFF6A"/>
<path d="M97.969 94.6361C99.2553 89.3858 106.745 89.3858 108.031 94.6361C109.003 98.6026 113.521 100.54 117.054 98.4828L118.363 97.7207C122.754 95.164 127.57 100.364 124.686 104.576C122.37 107.957 124.231 112.619 128.247 113.455C133.283 114.504 133.283 121.695 128.247 122.744C124.231 123.58 122.37 128.242 124.686 131.623C127.57 135.834 122.754 141.035 118.363 138.478L117.054 137.716C113.521 135.659 109.003 137.596 108.031 141.562C106.745 146.813 99.2553 146.813 97.969 141.562C96.9972 137.596 92.4793 135.659 88.9463 137.716L87.6373 138.478C83.2459 141.035 78.4298 135.834 81.3143 131.623C83.6301 128.242 81.7686 123.58 77.7531 122.744C72.7174 121.695 72.7174 114.504 77.7531 113.455C81.7686 112.619 83.6301 107.957 81.3143 104.576C78.4298 100.364 83.2459 95.164 87.6373 97.7207L88.9463 98.4828C92.4793 100.54 96.9972 98.6026 97.969 94.6361Z" stroke="black"/>
</g>
<g filter="url(#filter2_d_21_10)">
<path d="M29.4834 173.517C30.8941 167.759 39.1059 167.759 40.5166 173.517C41.4095 177.161 45.5597 178.938 48.8022 177.051L50.1111 176.289C54.9733 173.458 60.2774 179.216 57.0982 183.858C54.9831 186.946 56.6844 191.202 60.3488 191.965C65.9153 193.125 65.9153 201.074 60.3488 202.233C56.6844 202.996 54.9831 207.252 57.0982 210.34C60.2774 214.982 54.9733 220.741 50.1111 217.91L48.8022 217.148C45.5597 215.26 41.4095 217.037 40.5166 220.681C39.1059 226.44 30.8941 226.44 29.4834 220.681C28.5905 217.037 24.4403 215.26 21.1978 217.148L19.8889 217.91C15.0267 220.741 9.72257 214.982 12.9018 210.34C15.0169 207.252 13.3155 202.996 9.6512 202.233C4.08471 201.074 4.08471 193.125 9.6512 191.965C13.3155 191.202 15.0169 186.946 12.9018 183.858C9.72257 179.216 15.0267 173.458 19.8889 176.289L21.1978 177.051C24.4403 178.938 28.5905 177.161 29.4834 173.517Z" fill="#FCFF6A"/>
<path d="M29.969 173.636C31.2553 168.386 38.7447 168.386 40.031 173.636C41.0028 177.603 45.5207 179.54 49.0537 177.483L50.3627 176.721C54.7541 174.164 59.5702 179.364 56.6857 183.576C54.3699 186.957 56.2314 191.619 60.2468 192.455C65.2826 193.504 65.2826 200.695 60.2468 201.744C56.2314 202.58 54.3699 207.242 56.6857 210.623C59.5702 214.834 54.7541 220.035 50.3627 217.478L49.0537 216.716C45.5207 214.659 41.0028 216.596 40.031 220.562C38.7447 225.813 31.2553 225.813 29.969 220.562C28.9972 216.596 24.4793 214.659 20.9463 216.716L19.6373 217.478C15.2459 220.035 10.4298 214.834 13.3143 210.623C15.6301 207.242 13.7686 202.58 9.75315 201.744C4.71739 200.695 4.71739 193.504 9.75315 192.455C13.7686 191.619 15.6301 186.957 13.3143 183.576C10.4298 179.364 15.2459 174.164 19.6373 176.721L20.9463 177.483C24.4793 179.54 28.9972 177.603 29.969 173.636Z" stroke="black"/>
</g>
<g filter="url(#filter3_d_21_10)">
<path d="M437.483 22.5171C438.894 16.7588 447.106 16.7588 448.517 22.5171C449.409 26.1613 453.56 27.9385 456.802 26.0507L458.111 25.2886C462.973 22.4577 468.277 28.2164 465.098 32.8583C462.983 35.9464 464.684 40.2022 468.349 40.9654C473.915 42.1247 473.915 50.0739 468.349 51.2332C464.684 51.9964 462.983 56.2522 465.098 59.3403C468.277 63.9821 462.973 69.7408 458.111 66.91L456.802 66.1479C453.56 64.2601 449.409 66.0373 448.517 69.6815C447.106 75.4398 438.894 75.4398 437.483 69.6815C436.591 66.0373 432.44 64.2601 429.198 66.1479L427.889 66.91C423.027 69.7408 417.723 63.9821 420.902 59.3403C423.017 56.2522 421.316 51.9964 417.651 51.2332C412.085 50.0739 412.085 42.1247 417.651 40.9654C421.316 40.2022 423.017 35.9464 420.902 32.8583C417.723 28.2164 423.027 22.4577 427.889 25.2886L429.198 26.0507C432.44 27.9385 436.591 26.1613 437.483 22.5171Z" fill="#FCFF6A"/>
<path d="M437.969 22.6361C439.255 17.3858 446.745 17.3858 448.031 22.6361C449.003 26.6026 453.521 28.5397 457.054 26.4828L458.363 25.7207C462.754 23.164 467.57 28.3643 464.686 32.5758C462.37 35.9568 464.231 40.6186 468.247 41.4549C473.283 42.5036 473.283 49.695 468.247 50.7437C464.231 51.58 462.37 56.2418 464.686 59.6228C467.57 63.8343 462.754 69.0346 458.363 66.4779L457.054 65.7158C453.521 63.6589 449.003 65.596 448.031 69.5625C446.745 74.8128 439.255 74.8128 437.969 69.5625C436.997 65.596 432.479 63.6589 428.946 65.7158L427.637 66.4779C423.246 69.0346 418.43 63.8343 421.314 59.6228C423.63 56.2418 421.769 51.58 417.753 50.7437C412.717 49.695 412.717 42.5036 417.753 41.4549C421.769 40.6186 423.63 35.9568 421.314 32.5758C418.43 28.3643 423.246 23.164 427.637 25.7207L428.946 26.4828C432.479 28.5397 436.997 26.6026 437.969 22.6361Z" stroke="black"/>
</g>
<g filter="url(#filter4_d_21_10)">
<path d="M505.483 94.5171C506.894 88.7588 515.106 88.7588 516.517 94.5171C517.409 98.1613 521.56 99.9385 524.802 98.0507L526.111 97.2886C530.973 94.4577 536.277 100.216 533.098 104.858C530.983 107.946 532.684 112.202 536.349 112.965C541.915 114.125 541.915 122.074 536.349 123.233C532.684 123.996 530.983 128.252 533.098 131.34C536.277 135.982 530.973 141.741 526.111 138.91L524.802 138.148C521.56 136.26 517.409 138.037 516.517 141.681C515.106 147.44 506.894 147.44 505.483 141.681C504.591 138.037 500.44 136.26 497.198 138.148L495.889 138.91C491.027 141.741 485.723 135.982 488.902 131.34C491.017 128.252 489.316 123.996 485.651 123.233C480.085 122.074 480.085 114.125 485.651 112.965C489.316 112.202 491.017 107.946 488.902 104.858C485.723 100.216 491.027 94.4577 495.889 97.2886L497.198 98.0507C500.44 99.9385 504.591 98.1613 505.483 94.5171Z" fill="#FCFF6A"/>
<path d="M505.969 94.6361C507.255 89.3858 514.745 89.3858 516.031 94.6361C517.003 98.6026 521.521 100.54 525.054 98.4828L526.363 97.7207C530.754 95.164 535.57 100.364 532.686 104.576C530.37 107.957 532.231 112.619 536.247 113.455C541.283 114.504 541.283 121.695 536.247 122.744C532.231 123.58 530.37 128.242 532.686 131.623C535.57 135.834 530.754 141.035 526.363 138.478L525.054 137.716C521.521 135.659 517.003 137.596 516.031 141.562C514.745 146.813 507.255 146.813 505.969 141.562C504.997 137.596 500.479 135.659 496.946 137.716L495.637 138.478C491.246 141.035 486.43 135.834 489.314 131.623C491.63 128.242 489.769 123.58 485.753 122.744C480.717 121.695 480.717 114.504 485.753 113.455C489.769 112.619 491.63 107.957 489.314 104.576C486.43 100.364 491.246 95.164 495.637 97.7207L496.946 98.4828C500.479 100.54 504.997 98.6026 505.969 94.6361Z" stroke="black"/>
</g>
<g filter="url(#filter5_d_21_10)">
<path d="M437.483 173.517C438.894 167.759 447.106 167.759 448.517 173.517C449.409 177.161 453.56 178.938 456.802 177.051L458.111 176.289C462.973 173.458 468.277 179.216 465.098 183.858C462.983 186.946 464.684 191.202 468.349 191.965C473.915 193.125 473.915 201.074 468.349 202.233C464.684 202.996 462.983 207.252 465.098 210.34C468.277 214.982 462.973 220.741 458.111 217.91L456.802 217.148C453.56 215.26 449.409 217.037 448.517 220.681C447.106 226.44 438.894 226.44 437.483 220.681C436.591 217.037 432.44 215.26 429.198 217.148L427.889 217.91C423.027 220.741 417.723 214.982 420.902 210.34C423.017 207.252 421.316 202.996 417.651 202.233C412.085 201.074 412.085 193.125 417.651 191.965C421.316 191.202 423.017 186.946 420.902 183.858C417.723 179.216 423.027 173.458 427.889 176.289L429.198 177.051C432.44 178.938 436.591 177.161 437.483 173.517Z" fill="#FCFF6A"/>
<path d="M437.969 173.636C439.255 168.386 446.745 168.386 448.031 173.636C449.003 177.603 453.521 179.54 457.054 177.483L458.363 176.721C462.754 174.164 467.57 179.364 464.686 183.576C462.37 186.957 464.231 191.619 468.247 192.455C473.283 193.504 473.283 200.695 468.247 201.744C464.231 202.58 462.37 207.242 464.686 210.623C467.57 214.834 462.754 220.035 458.363 217.478L457.054 216.716C453.521 214.659 449.003 216.596 448.031 220.562C446.745 225.813 439.255 225.813 437.969 220.562C436.997 216.596 432.479 214.659 428.946 216.716L427.637 217.478C423.246 220.035 418.43 214.834 421.314 210.623C423.63 207.242 421.769 202.58 417.753 201.744C412.717 200.695 412.717 193.504 417.753 192.455C421.769 191.619 423.63 186.957 421.314 183.576C418.43 179.364 423.246 174.164 427.637 176.721L428.946 177.483C432.479 179.54 436.997 177.603 437.969 173.636Z" stroke="black"/>
</g>
<g filter="url(#filter6_d_21_10)">
<path d="M358.483 265.517C359.894 259.759 368.106 259.759 369.517 265.517C370.409 269.161 374.56 270.938 377.802 269.051L379.111 268.289C383.973 265.458 389.277 271.216 386.098 275.858C383.983 278.946 385.684 283.202 389.349 283.965C394.915 285.125 394.915 293.074 389.349 294.233C385.684 294.996 383.983 299.252 386.098 302.34C389.277 306.982 383.973 312.741 379.111 309.91L377.802 309.148C374.56 307.26 370.409 309.037 369.517 312.681C368.106 318.44 359.894 318.44 358.483 312.681C357.591 309.037 353.44 307.26 350.198 309.148L348.889 309.91C344.027 312.741 338.723 306.982 341.902 302.34C344.017 299.252 342.316 294.996 338.651 294.233C333.085 293.074 333.085 285.125 338.651 283.965C342.316 283.202 344.017 278.946 341.902 275.858C338.723 271.216 344.027 265.458 348.889 268.289L350.198 269.051C353.44 270.938 357.591 269.161 358.483 265.517Z" fill="#FCFF6A"/>
<path d="M358.969 265.636C360.255 260.386 367.745 260.386 369.031 265.636C370.003 269.603 374.521 271.54 378.054 269.483L379.363 268.721C383.754 266.164 388.57 271.364 385.686 275.576C383.37 278.957 385.231 283.619 389.247 284.455C394.283 285.504 394.283 292.695 389.247 293.744C385.231 294.58 383.37 299.242 385.686 302.623C388.57 306.834 383.754 312.035 379.363 309.478L378.054 308.716C374.521 306.659 370.003 308.596 369.031 312.562C367.745 317.813 360.255 317.813 358.969 312.562C357.997 308.596 353.479 306.659 349.946 308.716L348.637 309.478C344.246 312.035 339.43 306.834 342.314 302.623C344.63 299.242 342.769 294.58 338.753 293.744C333.717 292.695 333.717 285.504 338.753 284.455C342.769 283.619 344.63 278.957 342.314 275.576C339.43 271.364 344.246 266.164 348.637 268.721L349.946 269.483C353.479 271.54 357.997 269.603 358.969 265.636Z" stroke="black"/>
</g>
<g filter="url(#filter7_d_21_10)">
<path d="M301.483 22.5171C302.894 16.7588 311.106 16.7588 312.517 22.5171C313.409 26.1613 317.56 27.9385 320.802 26.0507L322.111 25.2886C326.973 22.4577 332.277 28.2164 329.098 32.8583C326.983 35.9464 328.684 40.2022 332.349 40.9654C337.915 42.1247 337.915 50.0739 332.349 51.2332C328.684 51.9964 326.983 56.2522 329.098 59.3403C332.277 63.9821 326.973 69.7408 322.111 66.91L320.802 66.1479C317.56 64.2601 313.409 66.0373 312.517 69.6815C311.106 75.4398 302.894 75.4398 301.483 69.6815C300.591 66.0373 296.44 64.2601 293.198 66.1479L291.889 66.91C287.027 69.7408 281.723 63.9821 284.902 59.3403C287.017 56.2522 285.316 51.9964 281.651 51.2332C276.085 50.0739 276.085 42.1247 281.651 40.9654C285.316 40.2022 287.017 35.9464 284.902 32.8583C281.723 28.2164 287.027 22.4577 291.889 25.2886L293.198 26.0507C296.44 27.9385 300.591 26.1613 301.483 22.5171Z" fill="#FCFF6A"/>
<path d="M301.969 22.6361C303.255 17.3858 310.745 17.3858 312.031 22.6361C313.003 26.6026 317.521 28.5397 321.054 26.4828L322.363 25.7207C326.754 23.164 331.57 28.3643 328.686 32.5758C326.37 35.9568 328.231 40.6186 332.247 41.4549C337.283 42.5036 337.283 49.695 332.247 50.7437C328.231 51.58 326.37 56.2418 328.686 59.6228C331.57 63.8343 326.754 69.0346 322.363 66.4779L321.054 65.7158C317.521 63.6589 313.003 65.596 312.031 69.5625C310.745 74.8128 303.255 74.8128 301.969 69.5625C300.997 65.596 296.479 63.6589 292.946 65.7158L291.637 66.4779C287.246 69.0346 282.43 63.8343 285.314 59.6228C287.63 56.2418 285.769 51.58 281.753 50.7437C276.717 49.695 276.717 42.5036 281.753 41.4549C285.769 40.6186 287.63 35.9568 285.314 32.5758C282.43 28.3643 287.246 23.164 291.637 25.7207L292.946 26.4828C296.479 28.5397 300.997 26.6026 301.969 22.6361Z" stroke="black"/>
</g>
<g filter="url(#filter8_d_21_10)">
<path d="M369.483 94.5171C370.894 88.7588 379.106 88.7588 380.517 94.5171C381.409 98.1613 385.56 99.9385 388.802 98.0507L390.111 97.2886C394.973 94.4577 400.277 100.216 397.098 104.858C394.983 107.946 396.684 112.202 400.349 112.965C405.915 114.125 405.915 122.074 400.349 123.233C396.684 123.996 394.983 128.252 397.098 131.34C400.277 135.982 394.973 141.741 390.111 138.91L388.802 138.148C385.56 136.26 381.409 138.037 380.517 141.681C379.106 147.44 370.894 147.44 369.483 141.681C368.591 138.037 364.44 136.26 361.198 138.148L359.889 138.91C355.027 141.741 349.723 135.982 352.902 131.34C355.017 128.252 353.316 123.996 349.651 123.233C344.085 122.074 344.085 114.125 349.651 112.965C353.316 112.202 355.017 107.946 352.902 104.858C349.723 100.216 355.027 94.4577 359.889 97.2886L361.198 98.0507C364.44 99.9385 368.591 98.1613 369.483 94.5171Z" fill="#FCFF6A"/>
<path d="M369.969 94.6361C371.255 89.3858 378.745 89.3858 380.031 94.6361C381.003 98.6026 385.521 100.54 389.054 98.4828L390.363 97.7207C394.754 95.164 399.57 100.364 396.686 104.576C394.37 107.957 396.231 112.619 400.247 113.455C405.283 114.504 405.283 121.695 400.247 122.744C396.231 123.58 394.37 128.242 396.686 131.623C399.57 135.834 394.754 141.035 390.363 138.478L389.054 137.716C385.521 135.659 381.003 137.596 380.031 141.562C378.745 146.813 371.255 146.813 369.969 141.562C368.997 137.596 364.479 135.659 360.946 137.716L359.637 138.478C355.246 141.035 350.43 135.834 353.314 131.623C355.63 128.242 353.769 123.58 349.753 122.744C344.717 121.695 344.717 114.504 349.753 113.455C353.769 112.619 355.63 107.957 353.314 104.576C350.43 100.364 355.246 95.164 359.637 97.7207L360.946 98.4828C364.479 100.54 368.997 98.6026 369.969 94.6361Z" stroke="black"/>
</g>
<g filter="url(#filter9_d_21_10)">
<path d="M301.483 173.517C302.894 167.759 311.106 167.759 312.517 173.517C313.409 177.161 317.56 178.938 320.802 177.051L322.111 176.289C326.973 173.458 332.277 179.216 329.098 183.858C326.983 186.946 328.684 191.202 332.349 191.965C337.915 193.125 337.915 201.074 332.349 202.233C328.684 202.996 326.983 207.252 329.098 210.34C332.277 214.982 326.973 220.741 322.111 217.91L320.802 217.148C317.56 215.26 313.409 217.037 312.517 220.681C311.106 226.44 302.894 226.44 301.483 220.681C300.591 217.037 296.44 215.26 293.198 217.148L291.889 217.91C287.027 220.741 281.723 214.982 284.902 210.34C287.017 207.252 285.316 202.996 281.651 202.233C276.085 201.074 276.085 193.125 281.651 191.965C285.316 191.202 287.017 186.946 284.902 183.858C281.723 179.216 287.027 173.458 291.889 176.289L293.198 177.051C296.44 178.938 300.591 177.161 301.483 173.517Z" fill="#FCFF6A"/>
<path d="M301.969 173.636C303.255 168.386 310.745 168.386 312.031 173.636C313.003 177.603 317.521 179.54 321.054 177.483L322.363 176.721C326.754 174.164 331.57 179.364 328.686 183.576C326.37 186.957 328.231 191.619 332.247 192.455C337.283 193.504 337.283 200.695 332.247 201.744C328.231 202.58 326.37 207.242 328.686 210.623C331.57 214.834 326.754 220.035 322.363 217.478L321.054 216.716C317.521 214.659 313.003 216.596 312.031 220.562C310.745 225.813 303.255 225.813 301.969 220.562C300.997 216.596 296.479 214.659 292.946 216.716L291.637 217.478C287.246 220.035 282.43 214.834 285.314 210.623C287.63 207.242 285.769 202.58 281.753 201.744C276.717 200.695 276.717 193.504 281.753 192.455C285.769 191.619 287.63 186.957 285.314 183.576C282.43 179.364 287.246 174.164 291.637 176.721L292.946 177.483C296.479 179.54 300.997 177.603 301.969 173.636Z" stroke="black"/>
</g>
<g filter="url(#filter10_d_21_10)">
<path d="M222.483 265.517C223.894 259.759 232.106 259.759 233.517 265.517C234.409 269.161 238.56 270.938 241.802 269.051L243.111 268.289C247.973 265.458 253.277 271.216 250.098 275.858C247.983 278.946 249.684 283.202 253.349 283.965C258.915 285.125 258.915 293.074 253.349 294.233C249.684 294.996 247.983 299.252 250.098 302.34C253.277 306.982 247.973 312.741 243.111 309.91L241.802 309.148C238.56 307.26 234.409 309.037 233.517 312.681C232.106 318.44 223.894 318.44 222.483 312.681C221.591 309.037 217.44 307.26 214.198 309.148L212.889 309.91C208.027 312.741 202.723 306.982 205.902 302.34C208.017 299.252 206.316 294.996 202.651 294.233C197.085 293.074 197.085 285.125 202.651 283.965C206.316 283.202 208.017 278.946 205.902 275.858C202.723 271.216 208.027 265.458 212.889 268.289L214.198 269.051C217.44 270.938 221.591 269.161 222.483 265.517Z" fill="#FCFF6A"/>
<path d="M222.969 265.636C224.255 260.386 231.745 260.386 233.031 265.636C234.003 269.603 238.521 271.54 242.054 269.483L243.363 268.721C247.754 266.164 252.57 271.364 249.686 275.576C247.37 278.957 249.231 283.619 253.247 284.455C258.283 285.504 258.283 292.695 253.247 293.744C249.231 294.58 247.37 299.242 249.686 302.623C252.57 306.834 247.754 312.035 243.363 309.478L242.054 308.716C238.521 306.659 234.003 308.596 233.031 312.562C231.745 317.813 224.255 317.813 222.969 312.562C221.997 308.596 217.479 306.659 213.946 308.716L212.637 309.478C208.246 312.035 203.43 306.834 206.314 302.623C208.63 299.242 206.769 294.58 202.753 293.744C197.717 292.695 197.717 285.504 202.753 284.455C206.769 283.619 208.63 278.957 206.314 275.576C203.43 271.364 208.246 266.164 212.637 268.721L213.946 269.483C217.479 271.54 221.997 269.603 222.969 265.636Z" stroke="black"/>
</g>
<g filter="url(#filter11_d_21_10)">
<path d="M165.483 22.5171C166.894 16.7588 175.106 16.7588 176.517 22.5171C177.409 26.1613 181.56 27.9385 184.802 26.0507L186.111 25.2886C190.973 22.4577 196.277 28.2164 193.098 32.8583C190.983 35.9464 192.684 40.2022 196.349 40.9654C201.915 42.1247 201.915 50.0739 196.349 51.2332C192.684 51.9964 190.983 56.2522 193.098 59.3403C196.277 63.9821 190.973 69.7408 186.111 66.91L184.802 66.1479C181.56 64.2601 177.409 66.0373 176.517 69.6815C175.106 75.4398 166.894 75.4398 165.483 69.6815C164.591 66.0373 160.44 64.2601 157.198 66.1479L155.889 66.91C151.027 69.7408 145.723 63.9821 148.902 59.3403C151.017 56.2522 149.316 51.9964 145.651 51.2332C140.085 50.0739 140.085 42.1247 145.651 40.9654C149.316 40.2022 151.017 35.9464 148.902 32.8583C145.723 28.2164 151.027 22.4577 155.889 25.2886L157.198 26.0507C160.44 27.9385 164.591 26.1613 165.483 22.5171Z" fill="#FCFF6A"/>
<path d="M165.969 22.6361C167.255 17.3858 174.745 17.3858 176.031 22.6361C177.003 26.6026 181.521 28.5397 185.054 26.4828L186.363 25.7207C190.754 23.164 195.57 28.3643 192.686 32.5758C190.37 35.9568 192.231 40.6186 196.247 41.4549C201.283 42.5036 201.283 49.695 196.247 50.7437C192.231 51.58 190.37 56.2418 192.686 59.6228C195.57 63.8343 190.754 69.0346 186.363 66.4779L185.054 65.7158C181.521 63.6589 177.003 65.596 176.031 69.5625C174.745 74.8128 167.255 74.8128 165.969 69.5625C164.997 65.596 160.479 63.6589 156.946 65.7158L155.637 66.4779C151.246 69.0346 146.43 63.8343 149.314 59.6228C151.63 56.2418 149.769 51.58 145.753 50.7437C140.717 49.695 140.717 42.5036 145.753 41.4549C149.769 40.6186 151.63 35.9568 149.314 32.5758C146.43 28.3643 151.246 23.164 155.637 25.7207L156.946 26.4828C160.479 28.5397 164.997 26.6026 165.969 22.6361Z" stroke="black"/>
</g>
<g filter="url(#filter12_d_21_10)">
<path d="M233.483 94.5171C234.894 88.7588 243.106 88.7588 244.517 94.5171C245.409 98.1613 249.56 99.9385 252.802 98.0507L254.111 97.2886C258.973 94.4577 264.277 100.216 261.098 104.858C258.983 107.946 260.684 112.202 264.349 112.965C269.915 114.125 269.915 122.074 264.349 123.233C260.684 123.996 258.983 128.252 261.098 131.34C264.277 135.982 258.973 141.741 254.111 138.91L252.802 138.148C249.56 136.26 245.409 138.037 244.517 141.681C243.106 147.44 234.894 147.44 233.483 141.681C232.591 138.037 228.44 136.26 225.198 138.148L223.889 138.91C219.027 141.741 213.723 135.982 216.902 131.34C219.017 128.252 217.316 123.996 213.651 123.233C208.085 122.074 208.085 114.125 213.651 112.965C217.316 112.202 219.017 107.946 216.902 104.858C213.723 100.216 219.027 94.4577 223.889 97.2886L225.198 98.0507C228.44 99.9385 232.591 98.1613 233.483 94.5171Z" fill="#FCFF6A"/>
<path d="M233.969 94.6361C235.255 89.3858 242.745 89.3858 244.031 94.6361C245.003 98.6026 249.521 100.54 253.054 98.4828L254.363 97.7207C258.754 95.164 263.57 100.364 260.686 104.576C258.37 107.957 260.231 112.619 264.247 113.455C269.283 114.504 269.283 121.695 264.247 122.744C260.231 123.58 258.37 128.242 260.686 131.623C263.57 135.834 258.754 141.035 254.363 138.478L253.054 137.716C249.521 135.659 245.003 137.596 244.031 141.562C242.745 146.813 235.255 146.813 233.969 141.562C232.997 137.596 228.479 135.659 224.946 137.716L223.637 138.478C219.246 141.035 214.43 135.834 217.314 131.623C219.63 128.242 217.769 123.58 213.753 122.744C208.717 121.695 208.717 114.504 213.753 113.455C217.769 112.619 219.63 107.957 217.314 104.576C214.43 100.364 219.246 95.164 223.637 97.7207L224.946 98.4828C228.479 100.54 232.997 98.6026 233.969 94.6361Z" stroke="black"/>
</g>
<g filter="url(#filter13_d_21_10)">
<path d="M165.483 173.517C166.894 167.759 175.106 167.759 176.517 173.517C177.409 177.161 181.56 178.938 184.802 177.051L186.111 176.289C190.973 173.458 196.277 179.216 193.098 183.858C190.983 186.946 192.684 191.202 196.349 191.965C201.915 193.125 201.915 201.074 196.349 202.233C192.684 202.996 190.983 207.252 193.098 210.34C196.277 214.982 190.973 220.741 186.111 217.91L184.802 217.148C181.56 215.26 177.409 217.037 176.517 220.681C175.106 226.44 166.894 226.44 165.483 220.681C164.591 217.037 160.44 215.26 157.198 217.148L155.889 217.91C151.027 220.741 145.723 214.982 148.902 210.34C151.017 207.252 149.316 202.996 145.651 202.233C140.085 201.074 140.085 193.125 145.651 191.965C149.316 191.202 151.017 186.946 148.902 183.858C145.723 179.216 151.027 173.458 155.889 176.289L157.198 177.051C160.44 178.938 164.591 177.161 165.483 173.517Z" fill="#FCFF6A"/>
<path d="M165.969 173.636C167.255 168.386 174.745 168.386 176.031 173.636C177.003 177.603 181.521 179.54 185.054 177.483L186.363 176.721C190.754 174.164 195.57 179.364 192.686 183.576C190.37 186.957 192.231 191.619 196.247 192.455C201.283 193.504 201.283 200.695 196.247 201.744C192.231 202.58 190.37 207.242 192.686 210.623C195.57 214.834 190.754 220.035 186.363 217.478L185.054 216.716C181.521 214.659 177.003 216.596 176.031 220.562C174.745 225.813 167.255 225.813 165.969 220.562C164.997 216.596 160.479 214.659 156.946 216.716L155.637 217.478C151.246 220.035 146.43 214.834 149.314 210.623C151.63 207.242 149.769 202.58 145.753 201.744C140.717 200.695 140.717 193.504 145.753 192.455C149.769 191.619 151.63 186.957 149.314 183.576C146.43 179.364 151.246 174.164 155.637 176.721L156.946 177.483C160.479 179.54 164.997 177.603 165.969 173.636Z" stroke="black"/>
</g>
<g filter="url(#filter14_d_21_10)">
<path d="M86.4834 265.517C87.8941 259.759 96.1059 259.759 97.5166 265.517C98.4095 269.161 102.56 270.938 105.802 269.051L107.111 268.289C111.973 265.458 117.277 271.216 114.098 275.858C111.983 278.946 113.684 283.202 117.349 283.965C122.915 285.125 122.915 293.074 117.349 294.233C113.684 294.996 111.983 299.252 114.098 302.34C117.277 306.982 111.973 312.741 107.111 309.91L105.802 309.148C102.56 307.26 98.4095 309.037 97.5166 312.681C96.1059 318.44 87.8941 318.44 86.4834 312.681C85.5905 309.037 81.4403 307.26 78.1978 309.148L76.8889 309.91C72.0267 312.741 66.7226 306.982 69.9018 302.34C72.0169 299.252 70.3155 294.996 66.6512 294.233C61.0847 293.074 61.0847 285.125 66.6512 283.965C70.3155 283.202 72.0169 278.946 69.9018 275.858C66.7226 271.216 72.0267 265.458 76.8889 268.289L78.1978 269.051C81.4403 270.938 85.5905 269.161 86.4834 265.517Z" fill="#FCFF6A"/>
<path d="M86.969 265.636C88.2553 260.386 95.7447 260.386 97.031 265.636C98.0028 269.603 102.521 271.54 106.054 269.483L107.363 268.721C111.754 266.164 116.57 271.364 113.686 275.576C111.37 278.957 113.231 283.619 117.247 284.455C122.283 285.504 122.283 292.695 117.247 293.744C113.231 294.58 111.37 299.242 113.686 302.623C116.57 306.834 111.754 312.035 107.363 309.478L106.054 308.716C102.521 306.659 98.0028 308.596 97.031 312.562C95.7447 317.813 88.2553 317.813 86.969 312.562C85.9972 308.596 81.4793 306.659 77.9463 308.716L76.6373 309.478C72.2459 312.035 67.4298 306.834 70.3143 302.623C72.6301 299.242 70.7686 294.58 66.7531 293.744C61.7174 292.695 61.7174 285.504 66.7531 284.455C70.7686 283.619 72.6301 278.957 70.3143 275.576C67.4298 271.364 72.2459 266.164 76.6373 268.721L77.9463 269.483C81.4793 271.54 85.9972 269.603 86.969 265.636Z" stroke="black"/>
</g>
</g>
<defs>
<filter id="filter0_d_21_10" x="1.47632" y="18.1984" width="67.0474" height="63.8018" filterUnits="userSpaceOnUse" color-interpolation-filters="sRGB">
<feFlood flood-opacity="0" result="BackgroundImageFix"/>
<feColorMatrix in="SourceAlpha" type="matrix" values="0 0 0 0 0 0 0 0 0 0 0 0 0 0 0 0 0 0 127 0" result="hardAlpha"/>
<feOffset dy="4"/>
<feGaussianBlur stdDeviation="2"/>
<feComposite in2="hardAlpha" operator="out"/>
<feColorMatrix type="matrix" values="0 0 0 0 0 0 0 0 0 0 0 0 0 0 0 0 0 0 0.25 0"/>
<feBlend mode="normal" in2="BackgroundImageFix" result="effect1_dropShadow_21_10"/>
<feBlend mode="normal" in="SourceGraphic" in2="effect1_dropShadow_21_10" result="shape"/>
</filter>
<filter id="filter1_d_21_10" x="69.4763" y="90.1984" width="67.0474" height="63.8018" filterUnits="userSpaceOnUse" color-interpolation-filters="sRGB">
<feFlood flood-opacity="0" result="BackgroundImageFix"/>
<feColorMatrix in="SourceAlpha" type="matrix" values="0 0 0 0 0 0 0 0 0 0 0 0 0 0 0 0 0 0 127 0" result="hardAlpha"/>
<feOffset dy="4"/>
<feGaussianBlur stdDeviation="2"/>
<feComposite in2="hardAlpha" operator="out"/>
<feColorMatrix type="matrix" values="0 0 0 0 0 0 0 0 0 0 0 0 0 0 0 0 0 0 0.25 0"/>
<feBlend mode="normal" in2="BackgroundImageFix" result="effect1_dropShadow_21_10"/>
<feBlend mode="normal" in="SourceGraphic" in2="effect1_dropShadow_21_10" result="shape"/>
</filter>
<filter id="filter2_d_21_10" x="1.47632" y="169.198" width="67.0474" height="63.8018" filterUnits="userSpaceOnUse" color-interpolation-filters="sRGB">
<feFlood flood-opacity="0" result="BackgroundImageFix"/>
<feColorMatrix in="SourceAlpha" type="matrix" values="0 0 0 0 0 0 0 0 0 0 0 0 0 0 0 0 0 0 127 0" result="hardAlpha"/>
<feOffset dy="4"/>
<feGaussianBlur stdDeviation="2"/>
<feComposite in2="hardAlpha" operator="out"/>
<feColorMatrix type="matrix" values="0 0 0 0 0 0 0 0 0 0 0 0 0 0 0 0 0 0 0.25 0"/>
<feBlend mode="normal" in2="BackgroundImageFix" result="effect1_dropShadow_21_10"/>
<feBlend mode="normal" in="SourceGraphic" in2="effect1_dropShadow_21_10" result="shape"/>
</filter>
<filter id="filter3_d_21_10" x="409.476" y="18.1984" width="67.0474" height="63.8018" filterUnits="userSpaceOnUse" color-interpolation-filters="sRGB">
<feFlood flood-opacity="0" result="BackgroundImageFix"/>
<feColorMatrix in="SourceAlpha" type="matrix" values="0 0 0 0 0 0 0 0 0 0 0 0 0 0 0 0 0 0 127 0" result="hardAlpha"/>
<feOffset dy="4"/>
<feGaussianBlur stdDeviation="2"/>
<feComposite in2="hardAlpha" operator="out"/>
<feColorMatrix type="matrix" values="0 0 0 0 0 0 0 0 0 0 0 0 0 0 0 0 0 0 0.25 0"/>
<feBlend mode="normal" in2="BackgroundImageFix" result="effect1_dropShadow_21_10"/>
<feBlend mode="normal" in="SourceGraphic" in2="effect1_dropShadow_21_10" result="shape"/>
</filter>
<filter id="filter4_d_21_10" x="477.476" y="90.1984" width="67.0474" height="63.8018" filterUnits="userSpaceOnUse" color-interpolation-filters="sRGB">
<feFlood flood-opacity="0" result="BackgroundImageFix"/>
<feColorMatrix in="SourceAlpha" type="matrix" values="0 0 0 0 0 0 0 0 0 0 0 0 0 0 0 0 0 0 127 0" result="hardAlpha"/>
<feOffset dy="4"/>
<feGaussianBlur stdDeviation="2"/>
<feComposite in2="hardAlpha" operator="out"/>
<feColorMatrix type="matrix" values="0 0 0 0 0 0 0 0 0 0 0 0 0 0 0 0 0 0 0.25 0"/>
<feBlend mode="normal" in2="BackgroundImageFix" result="effect1_dropShadow_21_10"/>
<feBlend mode="normal" in="SourceGraphic" in2="effect1_dropShadow_21_10" result="shape"/>
</filter>
<filter id="filter5_d_21_10" x="409.476" y="169.198" width="67.0474" height="63.8018" filterUnits="userSpaceOnUse" color-interpolation-filters="sRGB">
<feFlood flood-opacity="0" result="BackgroundImageFix"/>
<feColorMatrix in="SourceAlpha" type="matrix" values="0 0 0 0 0 0 0 0 0 0 0 0 0 0 0 0 0 0 127 0" result="hardAlpha"/>
<feOffset dy="4"/>
<feGaussianBlur stdDeviation="2"/>
<feComposite in2="hardAlpha" operator="out"/>
<feColorMatrix type="matrix" values="0 0 0 0 0 0 0 0 0 0 0 0 0 0 0 0 0 0 0.25 0"/>
<feBlend mode="normal" in2="BackgroundImageFix" result="effect1_dropShadow_21_10"/>
<feBlend mode="normal" in="SourceGraphic" in2="effect1_dropShadow_21_10" result="shape"/>
</filter>
<filter id="filter6_d_21_10" x="330.476" y="261.198" width="67.0474" height="63.8018" filterUnits="userSpaceOnUse" color-interpolation-filters="sRGB">
<feFlood flood-opacity="0" result="BackgroundImageFix"/>
<feColorMatrix in="SourceAlpha" type="matrix" values="0 0 0 0 0 0 0 0 0 0 0 0 0 0 0 0 0 0 127 0" result="hardAlpha"/>
<feOffset dy="4"/>
<feGaussianBlur stdDeviation="2"/>
<feComposite in2="hardAlpha" operator="out"/>
<feColorMatrix type="matrix" values="0 0 0 0 0 0 0 0 0 0 0 0 0 0 0 0 0 0 0.25 0"/>
<feBlend mode="normal" in2="BackgroundImageFix" result="effect1_dropShadow_21_10"/>
<feBlend mode="normal" in="SourceGraphic" in2="effect1_dropShadow_21_10" result="shape"/>
</filter>
<filter id="filter7_d_21_10" x="273.476" y="18.1984" width="67.0474" height="63.8018" filterUnits="userSpaceOnUse" color-interpolation-filters="sRGB">
<feFlood flood-opacity="0" result="BackgroundImageFix"/>
<feColorMatrix in="SourceAlpha" type="matrix" values="0 0 0 0 0 0 0 0 0 0 0 0 0 0 0 0 0 0 127 0" result="hardAlpha"/>
<feOffset dy="4"/>
<feGaussianBlur stdDeviation="2"/>
<feComposite in2="hardAlpha" operator="out"/>
<feColorMatrix type="matrix" values="0 0 0 0 0 0 0 0 0 0 0 0 0 0 0 0 0 0 0.25 0"/>
<feBlend mode="normal" in2="BackgroundImageFix" result="effect1_dropShadow_21_10"/>
<feBlend mode="normal" in="SourceGraphic" in2="effect1_dropShadow_21_10" result="shape"/>
</filter>
<filter id="filter8_d_21_10" x="341.476" y="90.1984" width="67.0474" height="63.8018" filterUnits="userSpaceOnUse" color-interpolation-filters="sRGB">
<feFlood flood-opacity="0" result="BackgroundImageFix"/>
<feColorMatrix in="SourceAlpha" type="matrix" values="0 0 0 0 0 0 0 0 0 0 0 0 0 0 0 0 0 0 127 0" result="hardAlpha"/>
<feOffset dy="4"/>
<feGaussianBlur stdDeviation="2"/>
<feComposite in2="hardAlpha" operator="out"/>
<feColorMatrix type="matrix" values="0 0 0 0 0 0 0 0 0 0 0 0 0 0 0 0 0 0 0.25 0"/>
<feBlend mode="normal" in2="BackgroundImageFix" result="effect1_dropShadow_21_10"/>
<feBlend mode="normal" in="SourceGraphic" in2="effect1_dropShadow_21_10" result="shape"/>
</filter>
<filter id="filter9_d_21_10" x="273.476" y="169.198" width="67.0474" height="63.8018" filterUnits="userSpaceOnUse" color-interpolation-filters="sRGB">
<feFlood flood-opacity="0" result="BackgroundImageFix"/>
<feColorMatrix in="SourceAlpha" type="matrix" values="0 0 0 0 0 0 0 0 0 0 0 0 0 0 0 0 0 0 127 0" result="hardAlpha"/>
<feOffset dy="4"/>
<feGaussianBlur stdDeviation="2"/>
<feComposite in2="hardAlpha" operator="out"/>
<feColorMatrix type="matrix" values="0 0 0 0 0 0 0 0 0 0 0 0 0 0 0 0 0 0 0.25 0"/>
<feBlend mode="normal" in2="BackgroundImageFix" result="effect1_dropShadow_21_10"/>
<feBlend mode="normal" in="SourceGraphic" in2="effect1_dropShadow_21_10" result="shape"/>
</filter>
<filter id="filter10_d_21_10" x="194.476" y="261.198" width="67.0474" height="63.8018" filterUnits="userSpaceOnUse" color-interpolation-filters="sRGB">
<feFlood flood-opacity="0" result="BackgroundImageFix"/>
<feColorMatrix in="SourceAlpha" type="matrix" values="0 0 0 0 0 0 0 0 0 0 0 0 0 0 0 0 0 0 127 0" result="hardAlpha"/>
<feOffset dy="4"/>
<feGaussianBlur stdDeviation="2"/>
<feComposite in2="hardAlpha" operator="out"/>
<feColorMatrix type="matrix" values="0 0 0 0 0 0 0 0 0 0 0 0 0 0 0 0 0 0 0.25 0"/>
<feBlend mode="normal" in2="BackgroundImageFix" result="effect1_dropShadow_21_10"/>
<feBlend mode="normal" in="SourceGraphic" in2="effect1_dropShadow_21_10" result="shape"/>
</filter>
<filter id="filter11_d_21_10" x="137.476" y="18.1984" width="67.0474" height="63.8018" filterUnits="userSpaceOnUse" color-interpolation-filters="sRGB">
<feFlood flood-opacity="0" result="BackgroundImageFix"/>
<feColorMatrix in="SourceAlpha" type="matrix" values="0 0 0 0 0 0 0 0 0 0 0 0 0 0 0 0 0 0 127 0" result="hardAlpha"/>
<feOffset dy="4"/>
<feGaussianBlur stdDeviation="2"/>
<feComposite in2="hardAlpha" operator="out"/>
<feColorMatrix type="matrix" values="0 0 0 0 0 0 0 0 0 0 0 0 0 0 0 0 0 0 0.25 0"/>
<feBlend mode="normal" in2="BackgroundImageFix" result="effect1_dropShadow_21_10"/>
<feBlend mode="normal" in="SourceGraphic" in2="effect1_dropShadow_21_10" result="shape"/>
</filter>
<filter id="filter12_d_21_10" x="205.476" y="90.1984" width="67.0474" height="63.8018" filterUnits="userSpaceOnUse" color-interpolation-filters="sRGB">
<feFlood flood-opacity="0" result="BackgroundImageFix"/>
<feColorMatrix in="SourceAlpha" type="matrix" values="0 0 0 0 0 0 0 0 0 0 0 0 0 0 0 0 0 0 127 0" result="hardAlpha"/>
<feOffset dy="4"/>
<feGaussianBlur stdDeviation="2"/>
<feComposite in2="hardAlpha" operator="out"/>
<feColorMatrix type="matrix" values="0 0 0 0 0 0 0 0 0 0 0 0 0 0 0 0 0 0 0.25 0"/>
<feBlend mode="normal" in2="BackgroundImageFix" result="effect1_dropShadow_21_10"/>
<feBlend mode="normal" in="SourceGraphic" in2="effect1_dropShadow_21_10" result="shape"/>
</filter>
<filter id="filter13_d_21_10" x="137.476" y="169.198" width="67.0474" height="63.8018" filterUnits="userSpaceOnUse" color-interpolation-filters="sRGB">
<feFlood flood-opacity="0" result="BackgroundImageFix"/>
<feColorMatrix in="SourceAlpha" type="matrix" values="0 0 0 0 0 0 0 0 0 0 0 0 0 0 0 0 0 0 127 0" result="hardAlpha"/>
<feOffset dy="4"/>
<feGaussianBlur stdDeviation="2"/>
<feComposite in2="hardAlpha" operator="out"/>
<feColorMatrix type="matrix" values="0 0 0 0 0 0 0 0 0 0 0 0 0 0 0 0 0 0 0.25 0"/>
<feBlend mode="normal" in2="BackgroundImageFix" result="effect1_dropShadow_21_10"/>
<feBlend mode="normal" in="SourceGraphic" in2="effect1_dropShadow_21_10" result="shape"/>
</filter>
<filter id="filter14_d_21_10" x="58.4763" y="261.198" width="67.0474" height="63.8018" filterUnits="userSpaceOnUse" color-interpolation-filters="sRGB">
<feFlood flood-opacity="0" result="BackgroundImageFix"/>
<feColorMatrix in="SourceAlpha" type="matrix" values="0 0 0 0 0 0 0 0 0 0 0 0 0 0 0 0 0 0 127 0" result="hardAlpha"/>
<feOffset dy="4"/>
<feGaussianBlur stdDeviation="2"/>
<feComposite in2="hardAlpha" operator="out"/>
<feColorMatrix type="matrix" values="0 0 0 0 0 0 0 0 0 0 0 0 0 0 0 0 0 0 0.25 0"/>
<feBlend mode="normal" in2="BackgroundImageFix" result="effect1_dropShadow_21_10"/>
<feBlend mode="normal" in="SourceGraphic" in2="effect1_dropShadow_21_10" result="shape"/>
</filter>
<clipPath id="clip0_21_10">
<rect width="481" height="344" fill="white"/>
</clipPath>
</defs>
</svg>
